<?xml version="1.0" standalone="no"?>
<!DOCTYPE svg PUBLIC "-//W3C//DTD SVG 20010904//EN"
 "http://www.w3.org/TR/2001/REC-SVG-20010904/DTD/svg10.dtd">
<svg version="1.0" xmlns="http://www.w3.org/2000/svg"
 width="512.000000pt" height="512.000000pt" viewBox="0 0 512.000000 512.000000"
 preserveAspectRatio="xMidYMid meet">

<g transform="translate(0.000000,512.000000) scale(0.100000,-0.100000)"
fill="#4338ca" stroke="none">
<path d="M2190 5094 c-819 -169 -1450 -793 -1605 -1587 -88 -448 -40 -713 220
-1235 223 -448 572 -952 1066 -1542 277 -331 653 -730 688 -730 31 0 409 395
671 700 582 680 987 1298 1208 1846 71 176 97 263 117 394 19 120 19 205 0
383 -64 613 -398 1150 -926 1490 -106 68 -198 115 -337 171 -146 59 -185 71
-347 106 -135 29 -148 30 -390 29 -222 -1 -263 -3 -365 -25z m485 -544 c619
-57 1118 -507 1219 -1099 65 -383 -49 -776 -314 -1078 -197 -224 -498 -390
-795 -438 -117 -19 -332 -22 -425 -6 -316 55 -568 187 -785 412 -185 191 -301
412 -352 667 -23 116 -22 346 1 457 55 255 172 478 343 656 262 272 584 417
973 438 14 0 75 -4 135 -9z"/>
<path d="M1584 3770 c-12 -4 -31 -21 -43 -36 -21 -27 -21 -30 -21 -561 0 -479
2 -536 16 -559 49 -73 170 -70 209 6 9 18 15 56 15 100 l0 70 800 0 800 0 0
-69 c0 -85 25 -129 87 -150 35 -13 46 -13 78 0 21 8 47 27 59 42 20 27 21 41
21 223 l0 195 -920 2 -920 2 -5 335 c-4 246 -8 341 -18 357 -25 45 -103 66
-158 43z"/>
<path d="M2000 3577 c-65 -43 -75 -75 -75 -232 l0 -140 723 -3 723 -2 -3 149
c-3 166 -9 181 -78 229 l-33 22 -612 0 -612 0 -33 -23z"/>
</g>
</svg>
